<?xml version="1.0" encoding="UTF-8"?>
<svg version="1.1" xmlns="http://www.w3.org/2000/svg" width="560" height="558">
<path d="M0 0 C184.8 0 369.6 0 560 0 C560 184.14 560 368.28 560 558 C375.2 558 190.4 558 0 558 C0 373.86 0 189.72 0 0 Z " fill="#CB5D54" transform="translate(0,0)"/>
<path d="M0 0 C7.51136408 -0.05057965 15.02268449 -0.08568257 22.53417969 -0.10986328 C25.09116253 -0.11994038 27.64813379 -0.13360226 30.20507812 -0.15087891 C33.87372692 -0.17505217 37.54222379 -0.18646585 41.2109375 -0.1953125 C42.35992523 -0.20563507 43.50891296 -0.21595764 44.69271851 -0.22659302 C46.28414169 -0.22681961 46.28414169 -0.22681961 47.90771484 -0.22705078 C48.84481293 -0.231492 49.78191101 -0.23593323 50.74740601 -0.24050903 C53 0 53 0 55 2 C55.54445771 3.66757991 56.0137315 5.3602435 56.4375 7.0625 C57.39666074 10.73044633 58.36527937 14.38196405 59.5 18 C59.7165625 18.70125 59.933125 19.4025 60.15625 20.125 C60.88447902 22.06037501 60.88447902 22.06037501 62.4140625 23.33984375 C64.72507684 25.759009 65.62086155 28.47460776 66.875 31.5625 C68.67052052 35.91286032 70.53221837 40.1881538 72.6875 44.375 C74.49206988 47.89765878 75.99133746 51.41110896 77.3203125 55.13671875 C77.98162582 56.94962941 78.73982961 58.72626909 79.5 60.5 C83.68025078 70.2539185 83.68025078 70.2539185 84.3984375 74.17578125 C84.69621094 75.07876953 84.69621094 75.07876953 85 76 C85.99 76.33 86.98 76.66 88 77 C88.80859375 79.1875 88.80859375 79.1875 89.4375 82 C91.27259559 89.3786135 94.13738141 95.59564902 98 102.12890625 C99.60173199 105.12589696 100.76954464 108.2803348 101.99609375 111.4453125 C103.95298041 116.42509412 106.13106414 121.29688571 108.5625 126.0625 C109.94177109 128.88101049 111.04803363 131.73095134 112.125 134.67578125 C115.90627513 144.71979332 120.22846081 154.63645587 125.125 164.1875 C127.84331011 169.55808839 130.0665007 175.02560451 131 181 C131.66 181 132.32 181 133 181 C133.4803318 182.58298026 133.95921612 184.16639978 134.4375 185.75 C134.83775391 187.07257813 134.83775391 187.07257813 135.24609375 188.421875 C135.88468494 190.60565835 136.46775833 192.78835498 137 195 C137.66 195 138.32 195 139 195 C140.31626692 198.61973402 141 201.09567131 141 205 C141.66 205 142.32 205 143 205 C143.32613281 205.89203125 143.65226562 206.7840625 143.98828125 207.703125 C144.42527344 208.87359375 144.86226563 210.0440625 145.3125 211.25 C145.95638672 212.99023438 145.95638672 212.99023438 146.61328125 214.765625 C147.81206628 217.91817354 147.81206628 217.91817354 149.51953125 220.01171875 C151.50790398 222.68211906 152.32504917 225.40912419 153.375 228.5625 C155.27206614 234.07602758 157.44997172 239.30677951 159.9296875 244.578125 C161.29749944 247.67317391 162.19759466 250.71743272 163 254 C163.66 254 164.32 254 165 254 C165.18175781 254.65226563 165.36351562 255.30453125 165.55078125 255.9765625 C166.98180171 260.95211056 168.63349454 265.37967982 171 270 C171 270.99 171 271.98 171 273 C171.66 273 172.32 273 173 273 C173.31453125 273.83402344 173.6290625 274.66804688 173.953125 275.52734375 C176.45713206 282.11167556 179.06390617 288.5979909 182 295 C182.42539062 295.95390625 182.85078125 296.9078125 183.2890625 297.890625 C183.72992188 298.87546875 184.17078125 299.8603125 184.625 300.875 C185.02976562 301.77992188 185.43453125 302.68484375 185.8515625 303.6171875 C187.01636198 306.1745185 187.01636198 306.1745185 189 309 C189 310.32 189 311.64 189 313 C189.66 313 190.32 313 191 313 C191 314.65 191 316.3 191 318 C183.37672096 318.13908484 175.75357359 318.245663 168.12931442 318.31087303 C164.58884589 318.34217342 161.04924593 318.38461736 157.50927734 318.45263672 C153.43839236 318.53036697 149.36841801 318.55942785 145.296875 318.5859375 C143.39201324 318.63238907 143.39201324 318.63238907 141.44866943 318.67977905 C132.69403157 318.6831387 132.69403157 318.6831387 129.16894531 315.21337891 C128 312 128 312 128 308 C127.34 308 126.68 308 126 308 C125.72736328 307.1646875 125.72736328 307.1646875 125.44921875 306.3125 C123.072578 299.09726243 120.45852588 292.06021092 117.5 285.0625 C116.01113732 281.53088228 114.63967562 278.03361776 113.5 274.375 C112.14378575 270.10486256 110.19038802 266.26209038 108.12890625 262.29296875 C106.80624636 259.60645888 105.9456021 256.83680631 105 254 C104.525625 253.401875 104.05125 252.80375 103.5625 252.1875 C101.62815709 249.47941992 100.86884076 246.83720242 99.875 243.6796875 C97.06060039 235.06058869 93.50050493 226.68578837 89.91796875 218.36328125 C89 216 89 216 89 214 C88.01 213.67 87.02 213.34 86 213 C85.04296875 210.5859375 85.04296875 210.5859375 84.1875 207.375 C82.68149515 202.12715235 80.96830926 197.0679037 78.9375 192 C78.45152344 190.783125 77.96554687 189.56625 77.46484375 188.3125 C76.15918409 185.3599683 74.68068926 182.74693298 73 180 C72.22998503 178.35180743 71.49946091 176.68450186 70.8125 175 C70.46832031 174.175 70.12414062 173.35 69.76953125 172.5 C68.95840301 169.86486258 68.85810203 167.74009868 69 165 C68.34 165 67.68 165 67 165 C66.55269531 163.90042969 66.10539063 162.80085937 65.64453125 161.66796875 C59.72048828 147.09367731 59.72048828 147.09367731 52.875 132.9375 C51.43727781 130.12456528 50.50564739 127.42445847 49.6875 124.375 C48.08463923 118.56688092 45.27606508 113.46899818 42.42578125 108.19921875 C41.04515556 105.10132165 40.66906625 103.32806962 41 100 C40.34 100 39.68 100 39 100 C38.67386719 99.03578125 38.34773437 98.0715625 38.01171875 97.078125 C37.5706888 95.80195323 37.12926154 94.52591871 36.6875 93.25 C36.47416016 92.61578125 36.26082031 91.9815625 36.04101562 91.328125 C34.77865205 87.71060552 33.32158448 85.01110139 31 82 C30.0859375 79.5625 30.0859375 79.5625 29.375 77 C29.13523437 76.154375 28.89546875 75.30875 28.6484375 74.4375 C28.07877279 72.29610976 27.5280358 70.15199495 27 68 C23.4788218 70.34745213 23.11203947 71.62770931 21.625 75.5 C20.02876271 79.51944088 18.35679623 83.40579286 16.375 87.25 C14.24709779 91.41270869 12.55308863 95.59664076 11 100 C10.46089981 101.43846446 9.91925593 102.87597833 9.375 104.3125 C8.54851145 106.52899201 7.74805883 108.75582351 7 111 C6.34 111 5.68 111 5 111 C4.7834375 112.3921875 4.7834375 112.3921875 4.5625 113.8125 C4 117 4 117 3 120 C2.34 120 1.68 120 1 120 C1.04511719 120.721875 1.09023437 121.44375 1.13671875 122.1875 C0.98295504 125.3506392 0.21249143 127.17417114 -1.1875 130 C-3.71725139 135.28166226 -5.79595746 140.64789593 -7.7890625 146.15234375 C-8.93325489 148.84304133 -10.24686339 150.69225181 -12 153 C-12.97979345 155.3412566 -12.97979345 155.3412566 -13.6875 157.75 C-13.93886719 158.54921875 -14.19023437 159.3484375 -14.44921875 160.171875 C-14.63097656 160.77515625 -14.81273437 161.3784375 -15 162 C-15.66 162 -16.32 162 -17 162 C-16.95875 162.721875 -16.9175 163.44375 -16.875 164.1875 C-17.00921305 167.20729369 -17.75170619 169.26935729 -19 172 C-19.66 172 -20.32 172 -21 172 C-21.12890625 172.56460938 -21.2578125 173.12921875 -21.390625 173.7109375 C-22.98478154 179.69924347 -25.6125878 185.3495874 -28.5 190.8125 C-31.01974428 195.7124335 -32.59208858 200.73236051 -34.10546875 206.01953125 C-34.92793709 208.75989521 -35.89371953 211.36344609 -37 214 C-37.66 214 -38.32 214 -39 214 C-39.12375 214.556875 -39.2475 215.11375 -39.375 215.6875 C-40.05976855 218.22114364 -40.99133763 220.57921032 -42 223 C-42.66 223 -43.32 223 -44 223 C-44 224.32 -44 225.64 -44 227 C-44.66 227 -45.32 227 -46 227 C-46.04898438 227.66386719 -46.09796875 228.32773437 -46.1484375 229.01171875 C-46.89103691 237.78207381 -46.89103691 237.78207381 -49 242 C-49.66 242 -50.32 242 -51 242 C-51 243.98 -51 245.96 -51 248 C-51.66 248 -52.32 248 -53 248 C-53.12375 248.5775 -53.2475 249.155 -53.375 249.75 C-54 252 -54 252 -54.9375 253.8125 C-56.14030551 256.1261136 -56.14030551 256.1261136 -56.9375 259.3125 C-58.63594885 265.20711661 -61.26564258 270.53128516 -64 276 C-66.77653494 281.87644142 -69.06399948 287.79599832 -71 294 C-71.66 294 -72.32 294 -73 294 C-73.66 297.3 -74.32 300.6 -75 304 C-75.66 304 -76.32 304 -77 304 C-77 305.32 -77 306.64 -77 308 C-77.66 308 -78.32 308 -79 308 C-79.12375 308.721875 -79.2475 309.44375 -79.375 310.1875 C-80 313 -80 313 -82 318 C-100.81 318 -119.62 318 -139 318 C-138.11993417 313.59967083 -137.31466395 311.47569687 -135.125 307.75 C-132.77817747 303.59405174 -131.02144255 299.66176042 -129.73828125 295.0703125 C-129 293 -129 293 -127.55859375 290.61328125 C-125.89542832 287.82466554 -124.84394921 285.11708354 -123.75 282.0625 C-121.90563078 277.1218261 -119.80359019 272.47971692 -117.375 267.8125 C-114.55332242 262.32283099 -112.45062681 256.99592413 -111 251 C-110.34 251 -109.68 251 -109 251 C-108.34 248.03 -107.68 245.06 -107 242 C-106.34 242 -105.68 242 -105 242 C-104.86722656 241.44828125 -104.73445313 240.8965625 -104.59765625 240.328125 C-103.94339359 237.77949398 -103.19964936 235.26840657 -102.4375 232.75 C-102.16808594 231.85796875 -101.89867187 230.9659375 -101.62109375 230.046875 C-101.41613281 229.37140625 -101.21117187 228.6959375 -101 228 C-100.34 228 -99.68 228 -99 228 C-99 226.68 -99 225.36 -99 224 C-98.34 224 -97.68 224 -97 224 C-96.34 221.03 -95.68 218.06 -95 215 C-94.34 215 -93.68 215 -93 215 C-92.34 212.03 -91.68 209.06 -91 206 C-90.34 206 -89.68 206 -89 206 C-88.34 202.7 -87.68 199.4 -87 196 C-86.34 196 -85.68 196 -85 196 C-85 194.68 -85 193.36 -85 192 C-84.34 192 -83.68 192 -83 192 C-83 190.35 -83 188.7 -83 187 C-82.34 187 -81.68 187 -81 187 C-81 185.68 -81 184.36 -81 183 C-80.34 183 -79.68 183 -79 183 C-78.34 180.03 -77.68 177.06 -77 174 C-76.34 174 -75.68 174 -75 174 C-75 172.35 -75 170.7 -75 169 C-74.34 169 -73.68 169 -73 169 C-72.896875 168.34 -72.79375 167.68 -72.6875 167 C-71.80786436 163.16158991 -70.43030104 159.66903309 -69 156 C-68.34 156 -67.68 156 -67 156 C-67 154.35 -67 152.7 -67 151 C-66.34 151 -65.68 151 -65 151 C-64.855625 150.2575 -64.71125 149.515 -64.5625 148.75 C-64.09812508 146.47972261 -63.58136431 144.24240521 -63 142 C-62.34 142 -61.68 142 -61 142 C-60.896875 141.360625 -60.79375 140.72125 -60.6875 140.0625 C-59.76096927 135.93522674 -58.38339371 131.99357051 -57 128 C-56.34 128 -55.68 128 -55 128 C-54.81050781 127.13761719 -54.81050781 127.13761719 -54.6171875 126.2578125 C-53.9919111 123.97040895 -53.14310994 122.0138201 -52.125 119.875 C-50.61449873 116.56498458 -49.43485209 113.3111478 -48.4375 109.8125 C-47.05912592 104.9956819 -45.60627292 100.60627292 -42 97 C-41.48324769 95.49801114 -41.0333733 93.97250317 -40.625 92.4375 C-39.19210779 87.38931054 -37.25179236 82.73219308 -35 78 C-34.34 78 -33.68 78 -33 78 C-32.87882812 77.32453125 -32.75765625 76.6490625 -32.6328125 75.953125 C-32.46523437 75.06109375 -32.29765625 74.1690625 -32.125 73.25 C-31.96257812 72.36828125 -31.80015625 71.4865625 -31.6328125 70.578125 C-31.03203736 68.13052256 -30.22002883 66.19400143 -29 64 C-28.34 64 -27.68 64 -27 64 C-26.83564453 63.11248047 -26.83564453 63.11248047 -26.66796875 62.20703125 C-25.72957591 57.53032549 -24.64806099 54.02965803 -22 50 C-21.30420546 47.80869466 -21.30420546 47.80869466 -21 46 C-20.34 46 -19.68 46 -19 46 C-18.87238281 45.27425781 -18.74476563 44.54851562 -18.61328125 43.80078125 C-16.85083086 35.75188363 -12.7939607 28.28216721 -8.96484375 21.04296875 C-6.80343543 16.87629948 -5.15509896 12.77293938 -3.80859375 8.2734375 C-2.7809366 5.38408262 -1.38596997 2.73272098 0 0 Z " fill="#FEFDFD" transform="translate(254,124)"/>
<path d="M0 0 C1 2 1 2 0.51171875 3.98828125 C0.10373047 5.13876953 0.10373047 5.13876953 -0.3125 6.3125 C-0.73402344 7.51132812 -0.73402344 7.51132812 -1.1640625 8.734375 C-2.06484488 11.17574781 -2.99357584 13.60006547 -4 16 C-4.66 16 -5.32 16 -6 16 C-6 17.65 -6 19.3 -6 21 C-6.66 21 -7.32 21 -8 21 C-8 21.99 -8 22.98 -8 24 C19.225 23.505 19.225 23.505 47 23 C46.505 24.485 46.505 24.485 46 26 C27.19 26 8.38 26 -11 26 C-10.11993417 21.59967083 -9.31466395 19.47569687 -7.125 15.75 C-4.71049983 11.47685582 -2.9238053 7.38290047 -1.54296875 2.6796875 C-1 1 -1 1 0 0 Z " fill="#EFD1CF" transform="translate(126,416)"/>
<path d="M0 0 C0.66 0 1.32 0 2 0 C2.33 0.99 2.66 1.98 3 3 C3.66 3.33 4.32 3.66 5 4 C5 5.65 5 7.3 5 9 C5.66 9 6.32 9 7 9 C8 14 9 19 10 24 C10.66 24 11.32 24 12 24 C12.268125 24.928125 12.53625 25.85625 12.8125 26.8125 C13.93710035 29.8311641 14.70706573 30.9155143 17 33 C17 33.66 17 34.32 17 35 C35.15 35 53.3 35 72 35 C72 33.68 72 32.36 72 31 C72.66 31 73.32 31 74 31 C74 32.65 74 34.3 74 36 C66.37672096 36.13908484 58.75357359 36.245663 51.12931442 36.31087303 C47.58884589 36.34217342 44.04924593 36.38461736 40.50927734 36.45263672 C36.43839236 36.53036697 32.36841801 36.55942785 28.296875 36.5859375 C26.39201324 36.63238907 26.39201324 36.63238907 24.44866943 36.67977905 C15.69403157 36.6831387 15.69403157 36.6831387 12.16894531 33.21337891 C11 30 11 30 11 26 C10.34 26 9.68 26 9 26 C8.81824219 25.443125 8.63648438 24.88625 8.44921875 24.3125 C7.19825968 20.51471656 5.92389857 16.73679201 4.5 13 C2.86556047 8.71067721 1.42402841 4.36298065 0 0 Z " fill="#EBC1BE" transform="translate(371,406)"/>
<path d="M0 0 C7.51136408 -0.05057965 15.02268449 -0.08568257 22.53417969 -0.10986328 C25.09116253 -0.11994038 27.64813379 -0.13360226 30.20507812 -0.15087891 C33.87372692 -0.17505217 37.54222379 -0.18646585 41.2109375 -0.1953125 C42.9344191 -0.21079636 42.9344191 -0.21079636 44.69271851 -0.22659302 C46.28414169 -0.22681961 46.28414169 -0.22681961 47.90771484 -0.22705078 C48.84481293 -0.231492 49.78191101 -0.23593323 50.74740601 -0.24050903 C53 0 53 0 55 2 C56.52561108 5.69358471 57.46911544 8.18029984 56 12 C53.24072656 9.24072656 53.48216757 6.78845948 53 3 C51.36040763 1.36040763 49.4665562 1.83357713 47.20483398 1.79467773 C45.67335976 1.7647599 45.67335976 1.7647599 44.11094666 1.73423767 C42.44534447 1.70916893 42.44534447 1.70916893 40.74609375 1.68359375 C39.61551041 1.66281265 38.48492706 1.64203156 37.32008362 1.62062073 C33.69262015 1.55500203 30.06508167 1.49618323 26.4375 1.4375 C23.98501814 1.39432649 21.532544 1.3507126 19.08007812 1.30664062 C13.05346573 1.19930816 7.02677799 1.0975651 1 1 C0.34 2.65 -0.32 4.3 -1 6 C-1.33 5.34 -1.66 4.68 -2 4 C-1.0625 1.875 -1.0625 1.875 0 0 Z " fill="#F2D9D7" transform="translate(254,124)"/>
<path d="M0 0 C0.66 0.33 1.32 0.66 2 1 C1.01 3.97 0.02 6.94 -1 10 C-1.66 10 -2.32 10 -3 10 C-2.938125 10.886875 -2.87625 11.77375 -2.8125 12.6875 C-3.02292814 16.40506374 -3.98703711 17.94029641 -6 21 C-6.69579454 23.19130534 -6.69579454 23.19130534 -7 25 C-7.66 25 -8.32 25 -9 25 C-9.10957031 25.63808594 -9.21914062 26.27617187 -9.33203125 26.93359375 C-9.49058594 27.75988281 -9.64914063 28.58617187 -9.8125 29.4375 C-9.96332031 30.26121094 -10.11414063 31.08492188 -10.26953125 31.93359375 C-10.51058594 32.61550781 -10.75164062 33.29742187 -11 34 C-12.485 34.495 -12.485 34.495 -14 35 C-12.45899783 28.41002322 -10.49687384 22.5452156 -7.3359375 16.55859375 C-5.87745162 13.76529477 -4.55416647 10.93091237 -3.25 8.0625 C-2.84265625 7.16660156 -2.4353125 6.27070313 -2.015625 5.34765625 C-0.92555068 2.92072214 -0.92555068 2.92072214 0 0 Z " fill="#DA8D87" transform="translate(233,296)"/>
<path d="M0 0 C1.11346788 2.80033839 1.03510273 3.90143703 0.00390625 6.796875 C-0.47175781 7.77140625 -0.94742188 8.7459375 -1.4375 9.75 C-1.91058594 10.73484375 -2.38367188 11.7196875 -2.87109375 12.734375 C-3.24363281 13.48203125 -3.61617187 14.2296875 -4 15 C-4.99 15 -5.98 15 -7 15 C-6.938125 15.804375 -6.87625 16.60875 -6.8125 17.4375 C-7.05139407 21.97648733 -8.42043264 25.76901601 -10 30 C-10.66 30 -11.32 30 -12 30 C-11.938125 30.7425 -11.87625 31.485 -11.8125 32.25 C-12.03094296 35.45383006 -12.90250005 36.64031256 -15 39 C-15 37.02 -15 35.04 -15 33 C-14.34 33 -13.68 33 -13 33 C-12.85691406 32.28457031 -12.71382812 31.56914062 -12.56640625 30.83203125 C-11.7109375 26.5546875 -10.85546875 22.27734375 -10 18 C-9.34 18 -8.68 18 -8 18 C-8 16.68 -8 15.36 -8 14 C-7.34 14 -6.68 14 -6 14 C-5.01 11.03 -4.02 8.06 -3 5 C-2.34 5 -1.68 5 -1 5 C-0.67 3.35 -0.34 1.7 0 0 Z " fill="#DB908A" transform="translate(218,333)"/>
<path d="M0 0 C4 4 4 4 4 12 C-14.15 12 -32.3 12 -51 12 C-51 11.67 -51 11.34 -51 11 C-33.18 11 -15.36 11 3 11 C2.01 7.37 1.02 3.74 0 0 Z " fill="#F5E4E3" transform="translate(439,429)"/>
<path d="M0 0 C0.66 0 1.32 0 2 0 C2.33 0.99 2.66 1.98 3 3 C3.66 3.33 4.32 3.66 5 4 C5 5.65 5 7.3 5 9 C5.66 9 6.32 9 7 9 C8 14 9 19 10 24 C10.66 24 11.32 24 12 24 C12.50559908 25.43554025 13.0042749 26.8735202 13.5 28.3125 C13.7784375 29.11300781 14.056875 29.91351563 14.34375 30.73828125 C15 33 15 33 15 36 C11 30.5 11 30.5 11 26 C10.34 26 9.68 26 9 26 C8.81824219 25.443125 8.63648438 24.88625 8.44921875 24.3125 C7.19825968 20.51471656 5.92389857 16.73679201 4.5 13 C2.86556047 8.71067721 1.42402841 4.36298065 0 0 Z " fill="#DA8B85" transform="translate(371,406)"/>
<path d="M0 0 C1.37095624 3.69037278 0.60010967 5.70883835 -0.9375 9.25 C-1.31777344 10.14203125 -1.69804687 11.0340625 -2.08984375 11.953125 C-2.39019531 12.62859375 -2.69054687 13.3040625 -3 14 C-3.66 14 -4.32 14 -5 14 C-4.92458984 15.08087891 -4.92458984 15.08087891 -4.84765625 16.18359375 C-5.02305057 19.42613997 -5.89061084 21.2272669 -7.4375 24.0625 C-9.04956276 27.04320864 -10.33054794 29.66812939 -11 33 C-11.66 33 -12.32 33 -13 33 C-13.33 33.99 -13.66 34.98 -14 36 C-14 34.68 -14 33.36 -14 32 C-13.34 32 -12.68 32 -12 32 C-12.04125 31.0925 -12.0825 30.185 -12.125 29.25 C-12.00468444 26.1217954 -11.6085292 24.61385994 -10 22 C-9.34 22 -8.68 22 -8 22 C-7.90203125 21.45472656 -7.8040625 20.90945313 -7.703125 20.34765625 C-6.24106626 12.97434276 -3.36106589 6.6771175 0 0 Z " fill="#DA8C86" transform="translate(191,396)"/>
<path d="M0 0 C1 2 1 2 0 5.25 C-2.07409854 10.52689255 -4.75410913 15.51699573 -7.37890625 20.53515625 C-8.57998574 23.10228277 -9.38738942 25.18394895 -10.08984375 27.87109375 C-10.39019531 28.90363281 -10.69054687 29.93617188 -11 31 C-11.66 31.33 -12.32 31.66 -13 32 C-12.33333333 28.66666667 -11.66666667 25.33333333 -11 22 C-10.34 22 -9.68 22 -9 22 C-8.90203125 21.43152344 -8.8040625 20.86304688 -8.703125 20.27734375 C-7.62704732 14.72070126 -5.98564745 10.79513076 -3 6 C-1.98553388 4.00729869 -0.98034504 2.00970734 0 0 Z " fill="#D88680" transform="translate(248,264)"/>
<path d="M0 0 C1 2 1 2 -0.0625 5.75 C-1.97337907 11.19954403 -4.28808065 16.47652057 -6.59765625 21.765625 C-7.78066732 24.49412964 -8.91269247 27.2323081 -10 30 C-10.66 30 -11.32 30 -12 30 C-11.67 28.02 -11.34 26.04 -11 24 C-10.34 24 -9.68 24 -9 24 C-8.89042969 23.33613281 -8.78085937 22.67226562 -8.66796875 21.98828125 C-7.77004763 16.98766362 -6.81803636 13.28341526 -4 9 C-3.43161043 7.59384193 -2.89149705 6.17603577 -2.375 4.75 C-1 1 -1 1 0 0 Z " fill="#D98C86" transform="translate(270,211)"/>
<path d="M0 0 C0.33 0.66 0.66 1.32 1 2 C0.0625 4.625 0.0625 4.625 -1 7 C-1.66 7 -2.32 7 -3 7 C-3 8.32 -3 9.64 -3 11 C-3.66 11 -4.32 11 -5 11 C-5 12.65 -5 14.3 -5 16 C-5.66 16 -6.32 16 -7 16 C-7 17.32 -7 18.64 -7 20 C-7.66 20 -8.32 20 -9 20 C-8.938125 20.9075 -8.87625 21.815 -8.8125 22.75 C-9.01672076 26.28982642 -9.64551835 27.44931155 -12 30 C-12 28.02 -12 26.04 -12 24 C-11.34 24 -10.68 24 -10 24 C-10 22.35 -10 20.7 -10 19 C-9.34 19 -8.68 19 -8 19 C-8 17.68 -8 16.36 -8 15 C-7.34 15 -6.68 15 -6 15 C-6 13.35 -6 11.7 -6 10 C-5.34 10 -4.68 10 -4 10 C-4 8.68 -4 7.36 -4 6 C-3.34 6 -2.68 6 -2 6 C-2 4.35 -2 2.7 -2 1 C-1.34 0.67 -0.68 0.34 0 0 Z " fill="#D88780" transform="translate(176,300)"/>
<path d="M0 0 C0.66 0 1.32 0 2 0 C2.66 2.97 3.32 5.94 4 9 C4.66 9 5.32 9 6 9 C6 10.65 6 12.3 6 14 C6.66 14 7.32 14 8 14 C8 15.65 8 17.3 8 19 C8.66 19 9.32 19 10 19 C10.33 21.31 10.66 23.62 11 26 C7.96374786 24.48187393 7.77433863 22.1993892 6.625 19.0625 C4.73716865 13.97599893 2.7747912 8.93832974 0.69921875 3.92578125 C0 2 0 2 0 0 Z " fill="#ECC8C5" transform="translate(344,340)"/>
<path d="M0 0 C1.24546405 2.49092811 0.7767578 3.41080733 0 6 C-0.66 6 -1.32 6 -2 6 C-2.11214844 6.68449219 -2.22429687 7.36898437 -2.33984375 8.07421875 C-3.10771393 11.47738305 -4.28413948 14.56743098 -5.5625 17.8125 C-6.01753906 18.97394531 -6.47257813 20.13539063 -6.94140625 21.33203125 C-7.29074219 22.21246094 -7.64007813 23.09289062 -8 24 C-8.66 23.67 -9.32 23.34 -10 23 C-8.17778624 16.38757278 -5.94776396 10.19479329 -3 4 C-2.34 4 -1.68 4 -1 4 C-0.67 2.68 -0.34 1.36 0 0 Z " fill="#EECECB" transform="translate(222,198)"/>
<path d="M0 0 C0.33 0.66 0.66 1.32 1 2 C1.66 2 2.32 2 3 2 C4.49821059 5.37097383 5 7.20442119 5 11 C5.66 11 6.32 11 7 11 C7 12.32 7 13.64 7 15 C7.66 15 8.32 15 9 15 C9.33 17.64 9.66 20.28 10 23 C7.28137293 21.64068647 7.1771374 20.31729353 6.125 17.5 C4.4896163 13.21480287 2.6913685 9.05747709 0.734375 4.91015625 C0 3 0 3 0 0 Z " fill="#D88882" transform="translate(431,407)"/>
<path d="M0 0 C0.66 0.33 1.32 0.66 2 1 C1.05066101 4.35433109 0.10251165 7.69246505 -1 11 C-1.66 11 -2.32 11 -3 11 C-3.144375 11.928125 -3.28875 12.85625 -3.4375 13.8125 C-4 17 -4 17 -5 20 C-5.66 20 -6.32 20 -7 20 C-7 21.65 -7 23.3 -7 25 C-7.66 25.33 -8.32 25.66 -9 26 C-8.67 23.69 -8.34 21.38 -8 19 C-7.34 19 -6.68 19 -6 19 C-6 17.35 -6 15.7 -6 14 C-5.34 14 -4.68 14 -4 14 C-3.855625 13.2575 -3.71125 12.515 -3.5625 11.75 C-3.09812508 9.47972261 -2.58136431 7.24240521 -2 5 C-1.34 5 -0.68 5 0 5 C0 3.35 0 1.7 0 0 Z " fill="#EFD1CF" transform="translate(262,224)"/>
<path d="M0 0 C2 2 2 2 2.125 4.625 C2.08375 5.40875 2.0425 6.1925 2 7 C2.99 7 3.98 7 5 7 C6.49821059 10.37097383 7 12.20442119 7 16 C7.66 16 8.32 16 9 16 C9.33 18.31 9.66 20.62 10 23 C7.21648011 21.60824005 7.11450549 20.07312148 6.0625 17.1875 C5.05938811 14.43807995 4.20487595 12.26593503 2.4140625 9.94140625 C0.13025764 6.8059062 0.31757723 3.81092672 0 0 Z " fill="#EBC4C1" transform="translate(355,366)"/>
<path d="M0 0 C2.62386487 3.06117568 3 3.73173127 3 8 C3.66 8 4.32 8 5 8 C6.66666667 13 8.33333333 18 10 23 C7.1251845 20.28623859 5.56683293 17.65594351 4 14 C4 12.68 4 11.36 4 10 C3.34 10 2.68 10 2 10 C0.39644899 6.49223216 -0.22036864 3.85645121 0 0 Z " fill="#D98983" transform="translate(290,216)"/>
<path d="M0 0 C0.66 0 1.32 0 2 0 C2.70133599 1.57725347 3.385583 3.16211333 4.0625 4.75 C4.44535156 5.63171875 4.82820313 6.5134375 5.22265625 7.421875 C6.04600008 10.15256309 5.9773992 11.36901347 5 14 C4.32591692 12.73308493 3.66099503 11.46129251 3 10.1875 C2.443125 9.12595703 2.443125 9.12595703 1.875 8.04296875 C1 6 1 6 1 3 C0.34 3 -0.32 3 -1 3 C-1.12375 3.639375 -1.2475 4.27875 -1.375 4.9375 C-1.58125 5.618125 -1.7875 6.29875 -2 7 C-2.99 7.495 -2.99 7.495 -4 8 C-2.25 2.25 -2.25 2.25 0 0 Z " fill="#DA8F89" transform="translate(279,192)"/>
<path d="M0 0 C0.33 1.32 0.66 2.64 1 4 C0.34 4 -0.32 4 -1 4 C-0.938125 5.0828125 -0.938125 5.0828125 -0.875 6.1875 C-1.00921305 9.20729369 -1.75170619 11.26935729 -3 14 C-3.66 14 -4.32 14 -5 14 C-5.12375 14.763125 -5.2475 15.52625 -5.375 16.3125 C-6 19 -6 19 -8 22 C-8.17942163 18.05272412 -8.09350689 15.4019487 -6 12 C-5.34 12 -4.68 12 -4 12 C-3.81824219 11.07767578 -3.81824219 11.07767578 -3.6328125 10.13671875 C-3.38144531 8.92435547 -3.38144531 8.92435547 -3.125 7.6875 C-2.96257812 6.88699219 -2.80015625 6.08648437 -2.6328125 5.26171875 C-2 3 -2 3 0 0 Z " fill="#F1D5D3" transform="translate(231,176)"/>
<path d="M0 0 C3.04558263 3.65469916 4.9865951 7.72578027 7 12 C7.433125 12.9075 7.86625 13.815 8.3125 14.75 C9.08511471 17.27855724 8.90778139 18.54899025 8 21 C5.8480563 17.77208445 5.79913557 16.71599191 6 13 C5.34 13 4.68 13 4 13 C3.32404685 11.58774074 2.65959941 10.16997095 2 8.75 C1.62875 7.96109375 1.2575 7.1721875 0.875 6.359375 C0 4 0 4 0 0 Z " fill="#EECDCA" transform="translate(400,339)"/>
<path d="M0 0 C0.86406958 2.43260352 1.11148146 3.66124417 0.29296875 6.1484375 C-0.07183594 6.88320313 -0.43664062 7.61796875 -0.8125 8.375 C-2.13391396 11.1173865 -3.17239984 13.56790534 -4.0625 16.5 C-4.371875 17.325 -4.68125 18.15 -5 19 C-5.99 19.33 -6.98 19.66 -8 20 C-6.34998276 12.90492587 -3.13106483 6.54766701 0 0 Z " fill="#EFCFCC" transform="translate(135,395)"/>
<path d="M0 0 C0.66 0 1.32 0 2 0 C2.33 0.99 2.66 1.98 3 3 C3.66 3.33 4.32 3.66 5 4 C5 5.65 5 7.3 5 9 C5.66 9 6.32 9 7 9 C7.33 11.31 7.66 13.62 8 16 C4.85751322 14.42875661 4.29871176 11.7022315 2.875 8.5625 C2.33617187 7.38816406 1.79734375 6.21382813 1.2421875 5.00390625 C0 2 0 2 0 0 Z " fill="#EBC4C1" transform="translate(371,406)"/>
<path d="M0 0 C0 3.8135074 -1.26400731 6.1131257 -2.875 9.5625 C-3.40867188 10.71878906 -3.94234375 11.87507812 -4.4921875 13.06640625 C-6 16 -6 16 -8 18 C-8 16.35 -8 14.7 -8 13 C-7.34 13 -6.68 13 -6 13 C-6 11.68 -6 10.36 -6 9 C-5.34 9 -4.68 9 -4 9 C-4 7.68 -4 6.36 -4 5 C-3.34 5 -2.68 5 -2 5 C-1.855625 4.360625 -1.71125 3.72125 -1.5625 3.0625 C-1 1 -1 1 0 0 Z " fill="#DA8C86" transform="translate(248,137)"/>
<path d="M0 0 C1 2 1 2 0.51171875 3.98828125 C-0.31812351 6.32835777 -1.14987943 8.66720468 -2 11 C-2.33 11.99 -2.66 12.98 -3 14 C-3.33 14.66 -3.66 15.32 -4 16 C-4.99 16.33 -5.98 16.66 -7 17 C-2.38461538 2.38461538 -2.38461538 2.38461538 0 0 Z " fill="#EECECC" transform="translate(126,416)"/>
<path d="M0 0 C0.66 0 1.32 0 2 0 C2 1.32 2 2.64 2 4 C2.66 4 3.32 4 4 4 C4 5.32 4 6.64 4 8 C4.66 8 5.32 8 6 8 C6 9.65 6 11.3 6 13 C6.66 13 7.32 13 8 13 C8 14.65 8 16.3 8 18 C5.22098427 14.69940947 3.81436896 11.34003448 2.3125 7.3125 C1.87550781 6.15363281 1.43851562 4.99476563 0.98828125 3.80078125 C0 1 0 1 0 0 Z " fill="#D98A84" transform="translate(372,273)"/>
<path d="M0 0 C0.66 0 1.32 0 2 0 C2.26554687 0.74765625 2.53109375 1.4953125 2.8046875 2.265625 C3.15789062 3.25046875 3.51109375 4.2353125 3.875 5.25 C4.22304688 6.22453125 4.57109375 7.1990625 4.9296875 8.203125 C5.89835318 10.94315555 5.89835318 10.94315555 7.1953125 13.109375 C8.1994902 15.46870512 7.8463756 16.63014831 7 19 C3.62600732 12.83373752 1.65535718 6.82207807 0 0 Z " fill="#DA8D86" transform="translate(332,181)"/>
<path d="M0 0 C0.33 0.99 0.66 1.98 1 3 C1.66 3 2.32 3 3 3 C3 4.65 3 6.3 3 8 C3.66 8 4.32 8 5 8 C5 9.65 5 11.3 5 13 C5.66 13 6.32 13 7 13 C7 14.65 7 16.3 7 18 C3.14906873 13.57142904 0.228645 7.80090119 -0.25 1.9375 C-0.1675 1.298125 -0.085 0.65875 0 0 Z " fill="#D8857F" transform="translate(365,255)"/>
<path d="M0 0 C1.46726798 3.81489674 0.43336419 6.29011622 -1 10 C-1.66 10 -2.32 10 -3 10 C-3.12375 10.5775 -3.2475 11.155 -3.375 11.75 C-4.00648824 14.02335767 -4.88858191 15.9253529 -6 18 C-7 16 -7 16 -6.328125 13.828125 C-5.97234375 12.97734375 -5.6165625 12.1265625 -5.25 11.25 C-4.87875 10.36054688 -4.5075 9.47109375 -4.125 8.5546875 C-2.84316911 5.64386318 -1.48108315 2.81405798 0 0 Z " fill="#F0D2D0" transform="translate(243,149)"/>
<path d="M0 0 C2 2 2 2 3 5 C3.66 5.33 4.32 5.66 5 6 C5 7.32 5 8.64 5 10 C5.66 10 6.32 10 7 10 C7 11.65 7 13.3 7 15 C4 11.25 4 11.25 4 9 C3.01 8.67 2.02 8.34 1 8 C0.67 5.36 0.34 2.72 0 0 Z " fill="#DD9892" transform="translate(313,138)"/>
<path d="M0 0 C3 1 3 1 4.1875 3.3125 C5 6 5 6 5 10 C5.66 10 6.32 10 7 10 C7.33 11.98 7.66 13.96 8 16 C7.34 15.67 6.68 15.34 6 15 C6 13.68 6 12.36 6 11 C5.34 11 4.68 11 4 11 C3.32880451 9.5437455 2.66318193 8.08492133 2 6.625 C1.62875 5.81289063 1.2575 5.00078125 0.875 4.1640625 C0 2 0 2 0 0 Z " fill="#DA8E88" transform="translate(413,367)"/>
<path d="M0 0 C1.5 1.3125 1.5 1.3125 3 3 C3 3.99 3 4.98 3 6 C3.99 6.33 4.98 6.66 6 7 C6.33 8.98 6.66 10.96 7 13 C4 12 4 12 2 9 C1.875 6.3125 1.875 6.3125 2 4 C1.34 4 0.68 4 0 4 C0 2.68 0 1.36 0 0 Z " fill="#EDCAC8" transform="translate(336,194)"/>
<path d="M0 0 C0.66 0 1.32 0 2 0 C2 1.32 2 2.64 2 4 C2.66 4 3.32 4 4 4 C4.66 7.96 5.32 11.92 6 16 C4 15 4 15 2.9296875 12.12890625 C2.58164062 10.95199219 2.23359375 9.77507812 1.875 8.5625 C1.52179688 7.38816406 1.16859375 6.21382813 0.8046875 5.00390625 C0 2 0 2 0 0 Z " fill="#EAC0BD" transform="translate(336,322)"/>
<path d="M0 0 C0.93065133 2.60582371 1.14917407 3.64198224 0.0625 6.25 C-0.4634375 7.11625 -0.4634375 7.11625 -1 8 C-1.66 8 -2.32 8 -3 8 C-3 9.65 -3 11.3 -3 13 C-3.99 13.33 -4.98 13.66 -6 14 C-3.18918919 3.18918919 -3.18918919 3.18918919 0 0 Z " fill="#EBC5C2" transform="translate(211,222)"/>
<path d="M0 0 C0.66 0 1.32 0 2 0 C2 1.32 2 2.64 2 4 C2.66 4 3.32 4 4 4 C4 5.65 4 7.3 4 9 C4.66 9 5.32 9 6 9 C6.33 10.98 6.66 12.96 7 15 C3.53898257 11.99663777 2.30647436 9.68719232 1.25 5.25 C1.00765625 4.26515625 0.7653125 3.2803125 0.515625 2.265625 C0.34546875 1.51796875 0.1753125 0.7703125 0 0 Z " fill="#F0D4D2" transform="translate(282,195)"/>
<path d="M0 0 C1.33332095 2.6666419 0.67102033 4.16680303 0 7 C-0.66 7 -1.32 7 -2 7 C-1.938125 7.7425 -1.87625 8.485 -1.8125 9.25 C-2.03094296 12.45383006 -2.90250005 13.64031256 -5 16 C-5 14.02 -5 12.04 -5 10 C-4.34 10 -3.68 10 -3 10 C-2.87625 9.278125 -2.7525 8.55625 -2.625 7.8125 C-2.0095069 5.04278106 -1.11555626 2.6029646 0 0 Z " fill="#DA8C86" transform="translate(208,356)"/>
<path d="M0 0 C1.13508688 3.3515741 0.87309359 5.35675676 -0.25 8.6875 C-0.50265625 9.47511719 -0.7553125 10.26273437 -1.015625 11.07421875 C-2 13 -2 13 -5 14 C-4.54857225 12.22739369 -4.08859477 10.4569632 -3.625 8.6875 C-3.36976563 7.70136719 -3.11453125 6.71523438 -2.8515625 5.69921875 C-2 3 -2 3 0 0 Z " fill="#E2A8A3" transform="translate(224,317)"/>
<path d="M0 0 C0.66 0.33 1.32 0.66 2 1 C1.01 3.97 0.02 6.94 -1 10 C-1.66 10 -2.32 10 -3 10 C-3 11.65 -3 13.3 -3 15 C-3.99 15.495 -3.99 15.495 -5 16 C-4.67 13.69 -4.34 11.38 -4 9 C-3.34 9 -2.68 9 -2 9 C-2 7.35 -2 5.7 -2 4 C-1.34 4 -0.68 4 0 4 C0 2.68 0 1.36 0 0 Z " fill="#F1D6D4" transform="translate(240,276)"/>
<path d="M0 0 C0.66 0 1.32 0 2 0 C2.66 2.97 3.32 5.94 4 9 C4.66 9 5.32 9 6 9 C6 10.65 6 12.3 6 14 C3.36968337 11.70860372 2.34441201 9.7516301 1.3125 6.4375 C1.06113281 5.65246094 0.80976563 4.86742187 0.55078125 4.05859375 C0 2 0 2 0 0 Z " fill="#F0D4D2" transform="translate(344,340)"/>
<path d="M0 0 C0.66 0 1.32 0 2 0 C2.66 2.64 3.32 5.28 4 8 C4.66 8 5.32 8 6 8 C6 9.98 6 11.96 6 14 C2.7563715 10.292996 0 5.02493834 0 0 Z " fill="#F0D4D2" transform="translate(326,298)"/>
<path d="M0 0 C1.37095624 3.69037278 0.60010967 5.70883835 -0.9375 9.25 C-1.31777344 10.14203125 -1.69804687 11.0340625 -2.08984375 11.953125 C-2.39019531 12.62859375 -2.69054687 13.3040625 -3 14 C-3.33 14 -3.66 14 -4 14 C-4.56561146 8.34388537 -2.71391278 4.77357872 0 0 Z " fill="#DA8C86" transform="translate(201,372)"/>
<path d="M0 0 C0.33 0.66 0.66 1.32 1 2 C1.66 2 2.32 2 3 2 C3 3.65 3 5.3 3 7 C3.66 7 4.32 7 5 7 C5.33 9.31 5.66 11.62 6 14 C5.34 13.67 4.68 13.34 4 13 C4 11.35 4 9.7 4 8 C3.34 8 2.68 8 2 8 C0.23537317 4.91190305 0 3.76687864 0 0 Z " fill="#DA8C86" transform="translate(389,311)"/>
<path d="M0 0 C2.64492308 1.32246154 2.97833787 2.64535898 4.1875 5.3125 C4.55230469 6.09238281 4.91710937 6.87226563 5.29296875 7.67578125 C6.07807525 10.2566562 5.89937661 11.49663962 5 14 C1.93757784 9.15939723 0.46588495 5.70709064 0 0 Z " fill="#D88780" transform="translate(313,271)"/>
<path d="M0 0 C0.33 0.99 0.66 1.98 1 3 C0.34 3 -0.32 3 -1 3 C-0.979375 3.94875 -0.95875 4.8975 -0.9375 5.875 C-1 9 -1 9 -2 11 C-2.66 11 -3.32 11 -4 11 C-4 9.35 -4 7.7 -4 6 C-3.34 6 -2.68 6 -2 6 C-2 4.68 -2 3.36 -2 2 C-1.34 2 -0.68 2 0 2 C0 1.34 0 0.68 0 0 Z " fill="#ECC5C2" transform="translate(212,345)"/>
<path d="M0 0 C0.66 0.33 1.32 0.66 2 1 C1.57742724 2.4835001 1.13643678 3.96176424 0.6875 5.4375 C0.44386719 6.26121094 0.20023438 7.08492188 -0.05078125 7.93359375 C-0.36402344 8.61550781 -0.67726562 9.29742187 -1 10 C-1.99 10.33 -2.98 10.66 -4 11 C-2.95902388 7.13351728 -1.96301592 3.50538557 0 0 Z " fill="#DD9993" transform="translate(233,296)"/>
<path d="M0 0 C0 1.65 0 3.3 0 5 C-0.33 4.01 -0.66 3.02 -1 2 C-4.16666667 3.83333333 -4.16666667 3.83333333 -6 7 C-6 5.02 -6 3.04 -6 1 C-4 0 -4 0 0 0 Z " fill="#F2DCDA" transform="translate(282,190)"/>
<path d="M0 0 C0.66 0.33 1.32 0.66 2 1 C0.87204037 5.10899581 -0.33510818 9.07561214 -2 13 C-3.43088528 10.13822943 -2.59991697 8.06624227 -2 5 C-1.34 5 -0.68 5 0 5 C0 3.35 0 1.7 0 0 Z " fill="#EFCECC" transform="translate(196,379)"/>
<path d="M0 0 C0.99 0.495 0.99 0.495 2 1 C2 1.99 2 2.98 2 4 C2.66 4 3.32 4 4 4 C4.33 6.31 4.66 8.62 5 11 C1.87729874 8.48169253 1.05476902 7.2738451 0.25 3.25 C0.1675 2.1775 0.085 1.105 0 0 Z " fill="#D88882" transform="translate(319,285)"/>
<path d="M0 0 C3.64566574 2.43044383 3.9977335 3.82388959 5 8 C4.625 10.375 4.625 10.375 4 12 C1.22917166 9.22917166 1.46903579 6.81929143 1 3 C0.67 2.01 0.34 1.02 0 0 Z " fill="#EBC3C0" transform="translate(306,124)"/>
<path d="M0 0 C1 3 1 3 0.22265625 4.82421875 C-0.8515625 6.54947917 -1.92578125 8.27473958 -3 10 C-3.33 10 -3.66 10 -4 10 C-4 8.35 -4 6.7 -4 5 C-3.34 5 -2.68 5 -2 5 C-2 3.68 -2 2.36 -2 1 C-1.34 0.67 -0.68 0.34 0 0 Z " fill="#D7847D" transform="translate(122,423)"/>
<path d="M0 0 C3.67230705 3.07999946 4.56802365 5.2482602 5 10 C4.34 10 3.68 10 3 10 C2.49596232 8.70990357 1.99690074 7.41786211 1.5 6.125 C1.2215625 5.40570313 0.943125 4.68640625 0.65625 3.9453125 C0 2 0 2 0 0 Z " fill="#D88882" transform="translate(285,206)"/>
<path d="M0 0 C0.66 0.33 1.32 0.66 2 1 C0.99806563 4.79303725 0.18975773 7.71536341 -2 11 C-2 9.02 -2 7.04 -2 5 C-1.34 5 -0.68 5 0 5 C0 3.35 0 1.7 0 0 Z " fill="#D7827B" transform="translate(222,191)"/>
<path d="M0 0 C0.66 0.33 1.32 0.66 2 1 C1.01 3.97 0.02 6.94 -1 10 C-1.33 10 -1.66 10 -2 10 C-2.17942163 6.05272412 -2.09350689 3.4019487 0 0 Z " fill="#ECC8C5" transform="translate(225,188)"/>
</svg>
