<?xml version="1.0" encoding="UTF-8"?>
<svg version="1.1" xmlns="http://www.w3.org/2000/svg" width="652" height="650">
<path d="M0 0 C215.16 0 430.32 0 652 0 C652 214.5 652 429 652 650 C436.84 650 221.68 650 0 650 C0 435.5 0 221 0 0 Z " fill="#E96F34" transform="translate(0,0)"/>
<path d="M0 0 C16.83 0 33.66 0 51 0 C59.87031981 17.74063963 59.87031981 17.74063963 62.875 24.3125 C65.72382959 30.46462217 68.79640989 36.46318801 72 42.4375 C75.6251305 49.20491394 78.86771499 56.04623496 81.90216064 63.09591675 C84.24239898 68.46115596 86.84070843 73.63007367 89.609375 78.78515625 C94.99528451 88.91814664 100.13898084 99.1638057 105.25 109.4375 C106.11699404 111.17652875 106.98418118 112.91546125 107.8515625 114.65429688 C109.50361217 117.9664621 111.15379815 121.27954556 112.80273438 124.59326172 C114.14088411 127.28071963 115.48429188 129.96531057 116.83789062 132.64501953 C119.39362388 137.7115795 121.81996981 142.76178661 124 148 C124.67679521 149.51880309 125.35811562 151.03559454 126.04296875 152.55078125 C126.39423828 153.33130859 126.74550781 154.11183594 127.10742188 154.91601562 C127.83676971 156.53429734 128.56860311 158.15146079 129.30273438 159.76757812 C129.65013672 160.54166016 129.99753906 161.31574219 130.35546875 162.11328125 C130.67153076 162.81235596 130.98759277 163.51143066 131.31323242 164.23168945 C132 166 132 166 132 168 C132.66 168 133.32 168 134 168 C134.24492187 167.19304687 134.48984375 166.38609375 134.7421875 165.5546875 C136.26189376 161.25986545 138.1535296 157.227756 140.125 153.125 C140.52533447 152.28565918 140.92566895 151.44631836 141.33813477 150.58154297 C144.12781278 144.75534203 146.99180052 138.96944393 149.90869141 133.20605469 C152.25714319 128.54608009 154.49707147 123.8415454 156.71289062 119.1171875 C159.90821161 112.30955371 163.11179031 105.6028888 166.9375 99.125 C170.21271296 93.54548701 173.05559176 87.8518401 175.8125 82 C180.91487129 71.17482389 186.20808271 60.45235161 191.5625 49.75 C191.97773926 48.91986389 192.39297852 48.08972778 192.82080078 47.23443604 C198.06527884 36.75956972 203.35704052 26.3160056 208.89453125 15.9921875 C211.68246141 10.70598225 214.32730396 5.34539207 217 0 C232.51 0 248.02 0 264 0 C255.42436709 18.22321994 255.42436709 18.22321994 251.484375 24.50390625 C249.38327598 28.03707013 247.61889581 31.72029818 245.81396484 35.41137695 C243.55203939 39.9935249 241.09950514 44.4400991 238.5625 48.875 C235.70207449 53.88969094 232.97600087 58.93810945 230.4375 64.125 C226.51817811 72.11901727 222.32579821 79.96419825 218.125 87.8125 C217.77211914 88.47185547 217.41923828 89.13121094 217.05566406 89.81054688 C215.65467623 92.42794593 214.25362256 95.04530963 212.85214233 97.66244507 C210.18965542 102.63738373 207.55558058 107.62659128 204.9375 112.625 C200.80602408 120.49793909 196.63062428 128.34726203 192.4375 136.1875 C192.11183044 136.79648132 191.78616089 137.40546265 191.45062256 138.03289795 C187.73066259 144.98250067 183.97030481 151.90392391 180.0625 158.75 C176.98339022 164.14719357 174.092063 169.60385174 171.43964577 175.22470284 C169.39649964 179.4716372 167.1234997 183.43847628 164.57211304 187.40231323 C154.15129991 204.10738145 151.97845788 218.36842411 152.37855577 237.89666986 C152.43922628 241.61078288 152.41810139 245.32456643 152.40682983 249.03903198 C152.39745435 256.02680232 152.45825469 263.01199738 152.54635084 269.99914539 C152.64331477 277.97296824 152.65888777 285.94636113 152.6687119 293.92069268 C152.69063557 310.2818878 152.82195987 326.6396455 153 343 C138.81 343 124.62 343 110 343 C110.00954712 336.82361816 110.00954712 336.82361816 110.01928711 330.52246094 C110.03525175 316.89580805 110.01312624 303.26943818 109.97153378 289.64284897 C109.94724853 281.3835296 109.93584177 273.12457606 109.95532227 264.86523438 C109.97227892 257.66183315 109.96449166 250.45894393 109.92765242 243.25560975 C109.90901278 239.44538261 109.90231535 235.63602026 109.92530632 231.82579803 C109.94660986 228.23019274 109.93452019 224.6361611 109.89815521 221.04069138 C109.88694183 219.11068964 109.90993012 217.18058106 109.93440247 215.2507019 C109.79462793 206.12461883 107.06535328 200.47876061 102 193 C100.81026607 190.82319389 99.76072594 188.61402123 98.6875 186.375 C95.95651956 180.81484657 93.03649639 175.39884845 90 170 C86.4166957 163.62537055 83.06938097 157.19812386 79.84765625 150.6328125 C77.28280424 145.50310848 74.42896233 140.53042255 71.62109375 135.53125 C68.79733695 130.48636742 66.16450216 125.38193623 63.625 120.1875 C61.52279314 116.06394039 59.26441923 112.03617541 57 108 C54.26879398 103.1300665 51.57638288 98.26880755 49.125 93.25 C45.9248128 86.71516396 42.39405089 80.37031385 38.88867188 73.99609375 C34.29954432 65.61938367 29.88895486 57.15566361 25.54077148 48.65161133 C22.65700047 43.04619244 19.61303224 37.60584126 16.33056641 32.22460938 C14.60816824 29.34488605 13.09829703 26.38890204 11.625 23.375 C7.7863612 15.56535554 3.89167559 7.78335118 0 0 Z " fill="#FEFDFD" transform="translate(194,162)"/>
<path d="M0 0 C215.16 0 430.32 0 652 0 C652 214.5 652 429 652 650 C436.84 650 221.68 650 0 650 C0 435.5 0 221 0 0 Z M4 5 C4 217.52 4 430.04 4 649 C216.52 649 429.04 649 648 649 C648 436.48 648 223.96 648 5 C435.48 5 222.96 5 4 5 Z " fill="#060607" transform="translate(0,0)"/>
<path d="M0 0 C215.16 0 430.32 0 652 0 C652 1.65 652 3.3 652 5 C436.84 5 221.68 5 0 5 C0 3.35 0 1.7 0 0 Z " fill="#202124" transform="translate(0,0)"/>
<path d="M0 0 C1.32 0 2.64 0 4 0 C4 212.52 4 425.04 4 644 C2.68 644 1.36 644 0 644 C0 431.48 0 218.96 0 0 Z " fill="#000000" transform="translate(648,5)"/>
<path d="M0 0 C15.51 0 31.02 0 47 0 C47 0.33 47 0.66 47 1 C46.44289841 1.00808685 45.88579681 1.01617371 45.31181335 1.02450562 C39.52054773 1.11047268 33.7296275 1.20997261 27.9387207 1.31738281 C25.77667027 1.35569804 23.61455553 1.3905464 21.45239258 1.421875 C18.34693396 1.46747017 15.24191901 1.52547384 12.13671875 1.5859375 C11.16788254 1.59748871 10.19904633 1.60903992 9.20085144 1.62094116 C7.84979057 1.6507457 7.84979057 1.6507457 6.47143555 1.68115234 C5.67867722 1.69447601 4.88591888 1.70779968 4.06913757 1.7215271 C1.69396892 1.88713582 1.69396892 1.88713582 -1 4 C-0.67 2.68 -0.34 1.36 0 0 Z " fill="#FCF4EF" transform="translate(411,162)"/>
</svg>
